<?xml version="1.0" standalone="no"?>
<!DOCTYPE svg PUBLIC "-//W3C//DTD SVG 20010904//EN"
 "http://www.w3.org/TR/2001/REC-SVG-20010904/DTD/svg10.dtd">
<svg version="1.0" xmlns="http://www.w3.org/2000/svg"
 width="296.000000pt" height="171.000000pt" viewBox="0 0 296.000000 171.000000"
 preserveAspectRatio="xMidYMid meet">
<metadata>
Created by potrace 1.10, written by Peter Selinger 2001-2011
</metadata>
<g transform="translate(0.000000,171.000000) scale(0.100000,-0.100000)"
fill="#000000" stroke="none">
<path d="M1239 1613 c-3 -18 -2 -33 3 -33 4 0 9 -15 9 -32 1 -18 3 -24 5 -13
3 11 1 40 -4 65 -8 44 -8 45 -13 13z"/>
<path d="M1706 1587 c-4 -32 -5 -61 -2 -65 3 -3 6 9 6 26 0 16 4 32 8 34 4 2
5 17 2 33 -5 25 -7 21 -14 -28z"/>
<path d="M820 1448 l0 -48 -55 0 -55 0 0 -555 0 -555 348 0 347 0 10 -22 c9
-20 18 -23 65 -23 47 0 56 3 65 22 l10 23 347 0 348 0 0 555 0 555 -55 0 -55
0 0 48 0 47 -104 -7 c-182 -12 -366 -89 -498 -208 l-58 -52 -57 52 c-133 119
-317 196 -499 208 l-104 7 0 -47z m242 -33 c93 -24 233 -97 313 -164 l70 -59
5 -403 c3 -222 4 -406 3 -408 -1 -1 -19 11 -40 28 -90 72 -307 145 -465 158
l-78 6 0 435 0 435 64 -6 c36 -3 93 -13 128 -22z m1028 -409 l0 -433 -79 -7
c-162 -13 -374 -85 -464 -157 -21 -17 -39 -29 -40 -28 -1 2 -1 185 1 405 l2
402 54 46 c145 124 330 202 484 205 l42 1 0 -434z m-1270 -71 l0 -415 54 0
c70 0 215 -25 296 -52 66 -21 185 -76 179 -83 -2 -2 -96 12 -209 31 -113 18
-231 36 -263 40 -58 7 -59 6 -55 -17 3 -27 30 -34 263 -65 72 -10 134 -21 139
-26 6 -4 -97 -7 -227 -5 l-237 2 0 503 0 502 30 0 30 0 0 -415z m1380 -87 l0
-503 -236 -2 c-152 -2 -233 1 -229 7 3 6 23 10 43 11 20 0 109 12 197 27 152
26 160 28 163 51 4 23 3 24 -55 17 -32 -4 -150 -22 -263 -40 -113 -19 -207
-33 -209 -31 -6 7 113 62 179 83 81 27 226 52 296 52 l54 0 0 415 0 415 30 0
30 0 0 -502z m-789 -483 c22 -12 34 -13 49 -5 14 8 26 8 40 0 15 -8 27 -7 50
5 28 14 33 14 52 0 13 -8 41 -16 63 -16 28 -1 18 -4 -34 -11 -55 -7 -82 -15
-104 -34 -36 -30 -58 -30 -94 0 -22 19 -49 27 -104 34 -52 7 -62 10 -33 11 22
0 49 8 60 16 24 18 19 18 55 0z"/>
<path d="M1239 953 c-3 -18 -2 -33 3 -33 4 0 9 -15 9 -32 l1 -33 7 30 c4 17 4
32 0 35 -4 3 -9 19 -11 35 l-3 30 -6 -32z"/>
<path d="M1239 823 c-3 -18 -2 -33 3 -33 4 0 9 -15 9 -32 1 -18 3 -24 5 -13 3
11 1 40 -4 65 -8 44 -8 45 -13 13z"/>
<path d="M1711 953 c0 -17 -5 -33 -9 -35 -4 -1 -5 -16 -1 -33 l7 -30 1 32 c0
17 5 33 9 35 4 2 5 17 1 33 l-7 30 -1 -32z"/>
<path d="M1705 787 c-4 -26 -5 -51 -1 -54 3 -4 6 8 6 24 0 17 4 33 9 35 4 2 5
12 1 23 -6 15 -9 9 -15 -28z"/>
<path d="M1710 163 c0 -17 -4 -33 -8 -35 -4 -1 -5 -16 -2 -33 5 -25 7 -21 14
28 4 32 5 61 2 65 -3 3 -6 -9 -6 -25z"/>
</g>
</svg>
